<svg width="428" height="434" viewBox="0 0 428 434" fill="none" xmlns="http://www.w3.org/2000/svg">
<circle cx="228" cy="200" r="200" fill="url(#paint0_linear_464_3082)"/>
<circle cx="76" cy="358" r="76" fill="url(#paint1_linear_464_3082)"/>
<path d="M163.5 69.125C207.729 69.125 243.917 97.9142 243.917 133.458C243.917 169.003 207.729 197.792 163.5 197.792C153.528 197.792 143.959 196.344 135.113 193.771C111.631 213.875 83.0833 213.875 83.0833 213.875C101.82 195.138 104.796 182.513 105.198 177.688C91.5271 166.188 83.0833 150.587 83.0833 133.458C83.0833 97.9142 119.271 69.125 163.5 69.125Z" fill="white"/>
<path d="M332.5 163.625C305.687 163.625 283.75 181.077 283.75 202.625C283.75 224.173 305.687 241.625 332.5 241.625C338.545 241.625 344.346 240.747 349.709 239.188C363.944 251.375 381.25 251.375 381.25 251.375C369.891 240.016 368.087 232.363 367.844 229.438C376.131 222.466 381.25 213.009 381.25 202.625C381.25 181.077 359.312 163.625 332.5 163.625Z" fill="white"/>
<path d="M76.9291 396.125C75.7132 396.125 74.6946 395.713 73.8735 394.889C73.0523 394.065 72.6403 393.046 72.6375 391.833C72.6375 391.333 72.7448 390.813 72.9594 390.275C73.1739 389.738 73.4958 389.255 73.925 388.829L93.7739 368.98L90.6625 365.869L70.9208 385.718C70.4916 386.147 70.0267 386.469 69.526 386.683C69.0253 386.898 68.4889 387.005 67.9166 387.005C66.7007 387.005 65.6821 386.595 64.861 385.774C64.0398 384.952 63.6278 383.932 63.625 382.714C63.625 381.998 63.7323 381.407 63.9469 380.941C64.1614 380.475 64.4475 380.064 64.8052 379.709L84.6541 359.86L81.65 356.856L61.801 376.598C61.3719 377.027 60.9069 377.349 60.4062 377.564C59.9055 377.778 59.3333 377.885 58.6896 377.885C57.5451 377.885 56.5437 377.456 55.6854 376.598C54.8271 375.74 54.3979 374.738 54.3979 373.594C54.3979 373.022 54.5052 372.485 54.7198 371.984C54.9344 371.484 55.2562 371.019 55.6854 370.59L75.5344 350.741L72.4229 347.736L52.6812 367.585C52.3236 367.943 51.8944 368.229 51.3937 368.444C50.893 368.658 50.285 368.766 49.5698 368.766C48.3538 368.766 47.3338 368.354 46.5098 367.53C45.6858 366.706 45.2752 365.687 45.2781 364.474C45.2781 363.902 45.3854 363.365 45.6 362.865C45.8146 362.364 46.1364 361.899 46.5656 361.47L70.4916 337.544L86.5854 353.745C87.3722 354.532 88.3021 355.158 89.375 355.625C90.4479 356.091 91.5208 356.323 92.5937 356.32C94.8826 356.32 96.8854 355.516 98.6021 353.908C100.319 352.3 101.177 350.243 101.177 347.736C101.177 346.735 100.998 345.698 100.641 344.625C100.283 343.552 99.6392 342.551 98.7093 341.621L79.5041 322.416C80.7201 321.271 82.0791 320.396 83.5812 319.789C85.0833 319.183 86.5854 318.878 88.0875 318.875C89.9472 318.875 91.6639 319.18 93.2375 319.789C94.8111 320.399 96.2416 321.346 97.5291 322.63L115.661 340.87C116.949 342.157 117.897 343.588 118.507 345.161C119.116 346.735 119.42 348.559 119.417 350.633C119.417 352.064 119.095 353.513 118.451 354.981C117.807 356.449 116.877 357.789 115.661 359.002L79.9333 394.838C79.3611 395.41 78.8604 395.767 78.4312 395.91C78.0021 396.053 77.5014 396.125 76.9291 396.125ZM40.1281 361.792L37.3385 359.002C36.1225 357.858 35.1927 356.499 34.5489 354.925C33.9052 353.351 33.5833 351.706 33.5833 349.99C33.5833 348.13 33.941 346.413 34.6562 344.84C35.3715 343.266 36.2656 341.943 37.3385 340.87L55.4708 322.63C56.6153 321.486 57.9743 320.573 59.5479 319.892C61.1215 319.211 62.6594 318.872 64.1614 318.875C66.0927 318.875 67.8094 319.144 69.3114 319.682C70.8135 320.22 72.2798 321.203 73.7104 322.63L95.7052 344.625C96.1344 345.054 96.4562 345.519 96.6708 346.02C96.8854 346.521 96.9927 347.057 96.9927 347.629C96.9927 348.774 96.5635 349.775 95.7052 350.633C94.8469 351.492 93.8455 351.921 92.701 351.921C92.0573 351.921 91.5208 351.832 91.0916 351.655C90.6625 351.477 90.1975 351.137 89.6969 350.633L70.3844 331.535L40.1281 361.792Z" fill="white"/>
<path d="M180.583 283.083L187.958 260.958H242.042L249.417 283.083M242.042 307.667C240.086 307.667 238.21 306.89 236.827 305.507C235.444 304.124 234.667 302.248 234.667 300.292C234.667 298.336 235.444 296.46 236.827 295.077C238.21 293.694 240.086 292.917 242.042 292.917C243.998 292.917 245.873 293.694 247.257 295.077C248.64 296.46 249.417 298.336 249.417 300.292C249.417 302.248 248.64 304.124 247.257 305.507C245.873 306.89 243.998 307.667 242.042 307.667ZM187.958 307.667C186.002 307.667 184.127 306.89 182.743 305.507C181.36 304.124 180.583 302.248 180.583 300.292C180.583 298.336 181.36 296.46 182.743 295.077C184.127 293.694 186.002 292.917 187.958 292.917C189.914 292.917 191.79 293.694 193.173 295.077C194.556 296.46 195.333 298.336 195.333 300.292C195.333 302.248 194.556 304.124 193.173 305.507C191.79 306.89 189.914 307.667 187.958 307.667ZM249.023 258.5C248.04 255.648 245.287 253.583 242.042 253.583H187.958C184.713 253.583 181.96 255.648 180.977 258.5L170.75 288V327.333C170.75 328.637 171.268 329.888 172.19 330.81C173.112 331.732 174.363 332.25 175.667 332.25H180.583C181.887 332.25 183.138 331.732 184.06 330.81C184.982 329.888 185.5 328.637 185.5 327.333V322.417H244.5V327.333C244.5 328.637 245.018 329.888 245.94 330.81C246.862 331.732 248.113 332.25 249.417 332.25H254.333C255.637 332.25 256.888 331.732 257.81 330.81C258.732 329.888 259.25 328.637 259.25 327.333V288L249.023 258.5Z" fill="white"/>
<defs>
<linearGradient id="paint0_linear_464_3082" x1="28" y1="400" x2="502.777" y2="132.938" gradientUnits="userSpaceOnUse">
<stop stop-color="#B33A03"/>
<stop offset="0.88375" stop-color="#F48303"/>
<stop offset="1" stop-color="#FD8D03"/>
</linearGradient>
<linearGradient id="paint1_linear_464_3082" x1="-2.26498e-06" y1="434" x2="180.415" y2="332.516" gradientUnits="userSpaceOnUse">
<stop stop-color="#B33A03"/>
<stop offset="0.88375" stop-color="#F48303"/>
<stop offset="1" stop-color="#FD8D03"/>
</linearGradient>
</defs>
</svg>
