<svg width="161" height="54" viewBox="0 0 161 54" fill="none" xmlns="http://www.w3.org/2000/svg">
<path d="M22.947 51.9677C21.4094 51.9677 20.4048 51.1006 20.4048 49.7817V45.9347H21.9055V49.6392C21.9055 50.3231 22.2787 50.7302 22.9511 50.7302C23.6277 50.7302 23.9968 50.3231 23.9968 49.6392V45.9347H25.4975V49.7817C25.4975 51.0966 24.5052 51.9677 22.947 51.9677Z" fill="#F6F6F6"/>
<path d="M28.6999 51.9148C27.3468 51.9148 26.6374 51.3286 26.5472 50.5388V50.5104H27.9578L27.966 50.5348C28.0521 50.7668 28.2817 50.9419 28.704 50.9419C29.0936 50.9419 29.3437 50.7912 29.3437 50.547V50.5429C29.3437 50.3312 29.1879 50.2091 28.7738 50.1236L27.9865 49.9689C27.1049 49.7939 26.6538 49.338 26.6538 48.6459V48.6418C26.6538 47.7381 27.4329 47.1723 28.6589 47.1723C29.9793 47.1723 30.6435 47.8236 30.6681 48.5482V48.5686H29.3396L29.3314 48.5401C29.2863 48.3528 29.0608 48.1411 28.6589 48.1411C28.2981 48.1411 28.0562 48.2917 28.0562 48.5441V48.5523C28.0562 48.7558 28.1956 48.8739 28.6302 48.9634L29.4175 49.1181C30.3606 49.3054 30.7912 49.688 30.7912 50.3679V50.3719C30.7912 51.3123 29.9383 51.9148 28.6999 51.9148Z" fill="#F6F6F6"/>
<path d="M33.7845 51.9148C32.3534 51.9148 31.48 51.0151 31.48 49.5456V49.5415C31.48 48.0801 32.3534 47.1723 33.7312 47.1723C35.1048 47.1723 35.9782 48.0678 35.9782 49.4519V49.8672H32.907C32.9193 50.5144 33.2555 50.8889 33.8132 50.8889C34.297 50.8889 34.5472 50.6121 34.6128 50.4941L34.621 50.4778L35.9495 50.4737L35.9372 50.5226C35.806 51.064 35.2483 51.9148 33.7845 51.9148ZM33.764 48.1981C33.317 48.1981 32.9931 48.4953 32.9234 49.0286H34.6046C34.5349 48.4871 34.215 48.1981 33.764 48.1981Z" fill="#F6F6F6"/>
<path d="M38.4754 51.8782C37.3436 51.8782 36.6548 51.0111 36.6548 49.5456V49.5374C36.6548 48.0638 37.3231 47.2089 38.4754 47.2089C39.1027 47.2089 39.5948 47.5061 39.8121 48.0068H39.89V45.5806H41.3457V51.8089H39.89V51.1169H39.8121C39.5989 51.5973 39.1273 51.8782 38.4754 51.8782ZM39.0125 50.7017C39.5579 50.7017 39.9023 50.2702 39.9023 49.5496V49.5415C39.9023 48.821 39.5497 48.3854 39.0125 48.3854C38.4754 48.3854 38.1309 48.825 38.1309 49.5374V49.5456C38.1309 50.2661 38.4713 50.7017 39.0125 50.7017Z" fill="#F6F6F6"/>
<path d="M47.2954 51.9677C45.524 51.9677 44.4333 50.7872 44.4333 48.8739V48.8657C44.4333 46.9524 45.5199 45.776 47.2954 45.776C48.7838 45.776 49.8704 46.7245 49.9566 48.0231V48.0963H48.5091L48.505 48.0597C48.4189 47.445 47.9432 47.0135 47.2954 47.0135C46.4712 47.0135 45.9668 47.7137 45.9668 48.8617V48.8698C45.9668 50.0259 46.4712 50.7302 47.2995 50.7302C47.9473 50.7302 48.4025 50.3272 48.505 49.7206L48.5132 49.6758H49.9607V49.741C49.8622 51.0518 48.8125 51.9677 47.2954 51.9677Z" fill="#F6F6F6"/>
<path d="M52.1585 51.8782C51.2851 51.8782 50.6864 51.3367 50.6864 50.5104V50.5022C50.6864 49.6799 51.3343 49.2036 52.5111 49.1303L53.5075 49.0733V48.7192C53.5075 48.4139 53.2779 48.2307 52.8761 48.2307C52.4947 48.2307 52.261 48.3569 52.1749 48.5848L52.1667 48.6052H50.8504L50.8545 48.5563C50.9366 47.7218 51.7238 47.1723 52.9581 47.1723C54.2169 47.1723 54.9345 47.7422 54.9345 48.7192V51.8089H53.5075V51.2472H53.4296C53.2287 51.6339 52.7407 51.8782 52.1585 51.8782ZM52.0847 50.4086C52.0847 50.6935 52.3266 50.8727 52.6915 50.8727C53.1508 50.8727 53.5075 50.5714 53.5075 50.1806V49.8834L52.7407 49.9323C52.3102 49.9608 52.0847 50.1318 52.0847 50.4004V50.4086Z" fill="#F6F6F6"/>
<path d="M56.0375 51.8089V47.2781H57.489V47.9986H57.5669C57.6982 47.4979 58.1 47.2089 58.6823 47.2089C58.8586 47.2089 59.0349 47.2333 59.1743 47.2822V48.4994C58.9816 48.4505 58.7725 48.422 58.5674 48.422C57.8868 48.422 57.489 48.7843 57.489 49.4112V51.8089H56.0375Z" fill="#F6F6F6"/>
<path d="M62.1307 51.8089V45.9347H64.6156C66.3788 45.9347 67.3834 46.9769 67.3834 48.8087V48.8169C67.3834 50.7424 66.3952 51.8089 64.6156 51.8089H62.1307ZM63.6356 50.6081H64.3449C65.3208 50.6081 65.8498 50.0056 65.8498 48.8454V48.8372C65.8498 47.7463 65.2921 47.1356 64.3449 47.1356H63.6356V50.6081Z" fill="#F6F6F6"/>
<path d="M70.4505 51.9148C69.0194 51.9148 68.146 51.0151 68.146 49.5456V49.5415C68.146 48.0801 69.0194 47.1723 70.3972 47.1723C71.7708 47.1723 72.6442 48.0678 72.6442 49.4519V49.8672H69.573C69.5853 50.5144 69.9215 50.8889 70.4792 50.8889C70.963 50.8889 71.2132 50.6121 71.2788 50.4941L71.287 50.4778L72.6155 50.4737L72.6032 50.5226C72.472 51.064 71.9143 51.9148 70.4505 51.9148ZM70.43 48.1981C69.983 48.1981 69.6591 48.4953 69.5894 49.0286H71.2706C71.2009 48.4871 70.881 48.1981 70.43 48.1981Z" fill="#F6F6F6"/>
<path d="M74.7846 51.8782C73.9112 51.8782 73.3126 51.3367 73.3126 50.5104V50.5022C73.3126 49.6799 73.9604 49.2036 75.1373 49.1303L76.1337 49.0733V48.7192C76.1337 48.4139 75.904 48.2307 75.5022 48.2307C75.1209 48.2307 74.8871 48.3569 74.801 48.5848L74.7928 48.6052H73.4766L73.4807 48.5563C73.5627 47.7218 74.35 47.1723 75.5842 47.1723C76.843 47.1723 77.5606 47.7422 77.5606 48.7192V51.8089H76.1337V51.2472H76.0558C75.8548 51.6339 75.3669 51.8782 74.7846 51.8782ZM74.7108 50.4086C74.7108 50.6935 74.9527 50.8727 75.3177 50.8727C75.7769 50.8727 76.1337 50.5714 76.1337 50.1806V49.8834L75.3669 49.9323C74.9363 49.9608 74.7108 50.1318 74.7108 50.4004V50.4086Z" fill="#F6F6F6"/>
<path d="M78.7046 51.8089V45.5806H80.1562V51.8089H78.7046Z" fill="#F6F6F6"/>
<path d="M83.4078 51.9148C81.9768 51.9148 81.1034 51.0151 81.1034 49.5456V49.5415C81.1034 48.0801 81.9768 47.1723 83.3545 47.1723C84.7282 47.1723 85.6015 48.0678 85.6015 49.4519V49.8672H82.5303C82.5426 50.5144 82.8789 50.8889 83.4365 50.8889C83.9204 50.8889 84.1705 50.6121 84.2361 50.4941L84.2443 50.4778L85.5728 50.4737L85.5605 50.5226C85.4293 51.064 84.8717 51.9148 83.4078 51.9148ZM83.3873 48.1981C82.9404 48.1981 82.6164 48.4953 82.5467 49.0286H84.2279C84.1582 48.4871 83.8384 48.1981 83.3873 48.1981Z" fill="#F6F6F6"/>
<path d="M86.5036 51.8089V47.2781H87.9552V47.9986H88.0331C88.1643 47.4979 88.5662 47.2089 89.1484 47.2089C89.3247 47.2089 89.5011 47.2333 89.6405 47.2822V48.4994C89.4477 48.4505 89.2386 48.422 89.0336 48.422C88.3529 48.422 87.9552 48.7843 87.9552 49.4112V51.8089H86.5036Z" fill="#F6F6F6"/>
<path d="M71.6553 42.2809L68.2821 29.2239H68.2346L65.7166 39.3716C65.6691 39.5578 65.6216 39.7362 65.574 39.9069C65.5424 40.0775 65.5265 40.2482 65.5265 40.4189C65.5265 40.6051 65.574 40.7603 65.6691 40.8844C65.7641 40.993 65.9858 41.0628 66.3342 41.0939L67.5457 41.1404L67.4269 41.955C67.2844 41.955 67.1419 41.9473 66.9993 41.9317C66.8568 41.9317 66.7143 41.9317 66.5717 41.9317C66.2867 41.9162 66.0016 41.9007 65.7166 41.8852C65.4315 41.8852 65.1465 41.8852 64.8614 41.8852C64.6555 41.8852 64.4417 41.8852 64.22 41.8852C63.9983 41.9007 63.7845 41.9085 63.5787 41.9085C63.4995 41.9085 63.4203 41.9085 63.3411 41.9085C63.2778 41.924 63.2065 41.9317 63.1273 41.9317C62.9848 41.9317 62.8502 41.9317 62.7235 41.9317C62.581 41.9473 62.4384 41.955 62.2959 41.955L62.3197 41.1404L63.3174 41.0706C63.5549 41.0706 63.7449 40.9542 63.8875 40.7215C64.03 40.4732 64.1408 40.2094 64.22 39.9301C64.2359 39.8991 64.2438 39.8758 64.2438 39.8603C64.2596 39.8293 64.2675 39.806 64.2675 39.7905L67.2369 29.0377C67.3319 28.6963 67.3873 28.4093 67.4032 28.1765C67.4348 27.9438 67.4507 27.7498 67.4507 27.5947C67.4507 27.3464 67.3319 27.1757 67.0944 27.0826C66.8726 26.9895 66.6272 26.9275 66.358 26.8964C66.3263 26.8809 66.2946 26.8732 66.2629 26.8732C66.2471 26.8732 66.2233 26.8732 66.1917 26.8732L65.1227 26.7801L65.2415 26.0353C65.384 26.0508 65.5265 26.0663 65.6691 26.0818C65.8274 26.0818 65.9779 26.0818 66.1204 26.0818C66.4213 26.0973 66.7143 26.1129 66.9993 26.1284C67.3002 26.1284 67.5932 26.1284 67.8783 26.1284C68.1 26.1284 68.3138 26.1284 68.5196 26.1284C68.7413 26.1129 68.9631 26.1051 69.1848 26.1051C69.2639 26.1051 69.3352 26.1051 69.3986 26.1051C69.4777 26.0896 69.549 26.0818 69.6124 26.0818C69.7549 26.0818 69.8974 26.0818 70.0399 26.0818C70.1983 26.0663 70.3487 26.0586 70.4913 26.0586L73.5081 37.8354L79.8269 27.7809C79.9536 27.6102 80.0644 27.4317 80.1594 27.2456C80.2703 27.0438 80.3812 26.8421 80.492 26.6404C80.5554 26.5473 80.6108 26.4542 80.6583 26.3611C80.7216 26.2525 80.7771 26.1517 80.8246 26.0586C80.9829 26.0586 81.1334 26.0663 81.2759 26.0818C81.4184 26.0818 81.5689 26.0818 81.7273 26.0818C82.0282 26.0973 82.329 26.1129 82.6299 26.1284C82.9308 26.1284 83.2317 26.1284 83.5326 26.1284C83.7543 26.1284 83.976 26.1284 84.1977 26.1284C84.4195 26.1129 84.6491 26.1051 84.8866 26.1051C84.95 26.1051 85.0212 26.1051 85.1004 26.1051C85.1796 26.0896 85.2509 26.0818 85.3142 26.0818C85.4726 26.0818 85.623 26.0818 85.7656 26.0818C85.9239 26.0663 86.0744 26.0586 86.2169 26.0586L86.0981 26.7801L85.1717 26.8499C84.7599 26.8964 84.467 27.0206 84.2928 27.2223C84.1186 27.4085 83.9681 27.8274 83.8414 28.4791L81.9411 39.325C81.9411 39.3716 81.9331 39.4181 81.9173 39.4647C81.9173 39.4957 81.9094 39.5345 81.8935 39.581C81.8935 39.581 81.8935 39.5888 81.8935 39.6043C81.8935 39.6198 81.8935 39.6276 81.8935 39.6276C81.8619 39.7827 81.8302 39.9301 81.7985 40.0698C81.7827 40.1939 81.7748 40.3103 81.7748 40.4189C81.7748 40.6051 81.8223 40.7603 81.9173 40.8844C82.0281 40.993 82.2657 41.0628 82.6299 41.0939L83.9364 41.1404L83.8177 41.955C83.6118 41.955 83.4059 41.9473 83.2 41.9317C83.01 41.9317 82.8121 41.9317 82.6062 41.9317C82.5112 41.9317 82.4082 41.924 82.2974 41.9085C82.2024 41.9085 82.1073 41.9085 82.0123 41.9085C81.7114 41.9085 81.4105 41.9007 81.1096 41.8852C80.8087 41.8852 80.5078 41.8852 80.207 41.8852C79.811 41.8852 79.4072 41.8852 78.9955 41.8852C78.5837 41.9007 78.172 41.9162 77.7602 41.9317C77.5543 41.9317 77.3485 41.9317 77.1426 41.9317C76.9367 41.9473 76.7308 41.955 76.525 41.955L76.6437 41.1404L77.8077 41.0706C77.8394 41.0861 77.8711 41.0939 77.9027 41.0939C77.9503 41.0784 77.9898 41.0706 78.0215 41.0706C78.164 41.0396 78.2907 40.993 78.4016 40.9309C78.5283 40.8534 78.6075 40.7603 78.6391 40.6517C78.6866 40.4655 78.7342 40.2793 78.7817 40.0931C78.8292 39.9069 78.8688 39.7284 78.9004 39.5578L80.8246 28.4093L80.7771 28.3627L73.9357 39.3716C73.7615 39.6664 73.5873 39.9612 73.4131 40.256C73.2547 40.5508 73.0885 40.8456 72.9143 41.1404C72.8034 41.3266 72.6925 41.5128 72.5817 41.699C72.4708 41.8852 72.36 42.0792 72.2491 42.2809H71.6553Z" fill="#F6F6F6"/>
<path d="M147.579 31.179L148.006 28.5722C148.038 28.4171 148.062 28.2697 148.078 28.13C148.093 27.9748 148.101 27.843 148.101 27.7343C148.101 27.393 148.038 27.1447 147.911 26.9896C147.785 26.8189 147.547 26.7335 147.199 26.7335L146.13 26.7103L146.296 26.0586C146.502 26.0431 146.716 26.0198 146.937 25.9888C147.159 25.9577 147.373 25.9267 147.579 25.8957C148.181 25.787 148.767 25.6707 149.337 25.5465C149.923 25.4069 150.477 25.2285 150.999 25.0112L151.237 25.1974C151.174 25.4612 151.11 25.7172 151.047 25.9655C150.999 26.2137 150.952 26.4698 150.904 26.7335L148.363 39.069C148.363 39.1156 148.355 39.1544 148.339 39.1854C148.339 39.2164 148.331 39.2552 148.315 39.3018C148.315 39.3328 148.307 39.3716 148.291 39.4181C148.291 39.4647 148.291 39.5035 148.291 39.5345C148.276 39.6276 148.26 39.7207 148.244 39.8138C148.244 39.8914 148.244 39.9534 148.244 40C148.244 40.1086 148.276 40.2017 148.339 40.2793C148.402 40.3569 148.481 40.3957 148.576 40.3957C148.64 40.3957 148.743 40.3569 148.885 40.2793C149.044 40.1862 149.21 40.0853 149.384 39.9767C149.4 39.9612 149.416 39.9534 149.432 39.9534C149.447 39.9379 149.463 39.9302 149.479 39.9302C149.527 39.8991 149.566 39.8681 149.598 39.8371C149.645 39.806 149.693 39.775 149.74 39.744L150.358 39.325L150.572 39.9767C150.429 40.1009 150.271 40.225 150.097 40.3491C149.938 40.4577 149.772 40.5741 149.598 40.6982C149.503 40.7603 149.4 40.8301 149.289 40.9077C149.178 40.9698 149.075 41.0396 148.98 41.1172C148.474 41.443 147.991 41.7145 147.531 41.9318C147.088 42.1645 146.755 42.2809 146.534 42.2809C146.233 42.2809 146.011 42.18 145.868 41.9783C145.726 41.7766 145.655 41.5516 145.655 41.3034C145.655 41.2413 145.655 41.1792 145.655 41.1172C145.67 41.0396 145.678 40.9698 145.678 40.9077C145.694 40.8146 145.71 40.7215 145.726 40.6284C145.742 40.5353 145.758 40.45 145.773 40.3724C145.789 40.3414 145.797 40.3103 145.797 40.2793C145.813 40.2483 145.821 40.2172 145.821 40.1862L146.724 36.5321L146.676 36.4855C146.534 36.7493 146.391 36.9976 146.248 37.2303C146.122 37.4476 145.987 37.657 145.845 37.8587C144.768 39.488 143.746 40.6362 142.78 41.3034C141.83 41.9551 141.141 42.2809 140.714 42.2809C140.08 42.2809 139.645 42.0714 139.407 41.6525C139.185 41.218 139.075 40.737 139.075 40.2095C139.075 40.1939 139.075 40.1862 139.075 40.1862C139.075 40.1707 139.075 40.1552 139.075 40.1396C139.075 39.7517 139.106 39.3095 139.17 38.813C139.233 38.3165 139.32 37.8044 139.431 37.2769C139.573 36.6407 139.756 36.0278 139.977 35.4382C140.199 34.8331 140.444 34.3365 140.714 33.9486C140.904 33.6693 141.165 33.39 141.498 33.1107C141.83 32.8315 142.171 32.5754 142.519 32.3427C142.709 32.2186 142.891 32.1099 143.065 32.0168C143.255 31.9082 143.43 31.8074 143.588 31.7143C143.635 31.6832 143.683 31.6522 143.731 31.6212C143.794 31.5901 143.857 31.5669 143.921 31.5514C144.237 31.3807 144.562 31.2488 144.894 31.1557C145.227 31.0471 145.583 30.9928 145.963 30.9928C146.106 30.9928 146.241 31.0005 146.367 31.016C146.51 31.016 146.644 31.0238 146.771 31.0393C146.898 31.0548 147.024 31.0781 147.151 31.1091C147.294 31.1402 147.436 31.1712 147.579 31.2022V31.179ZM145.346 32.1332C145.282 32.1487 145.219 32.1565 145.156 32.1565C145.092 32.1565 145.021 32.1565 144.942 32.1565C144.736 32.172 144.53 32.2108 144.324 32.2729C144.119 32.3194 143.952 32.4125 143.826 32.5522C143.493 32.8935 143.192 33.4211 142.923 34.1348C142.669 34.8486 142.448 35.5934 142.258 36.3692C142.115 37.0209 141.996 37.657 141.901 38.2777C141.822 38.8828 141.783 39.3871 141.783 39.7905C141.783 39.9922 141.83 40.1396 141.925 40.2327C142.036 40.3258 142.155 40.3801 142.281 40.3957C142.313 40.3957 142.337 40.3957 142.353 40.3957C142.369 40.3957 142.384 40.3957 142.4 40.3957C142.638 40.3957 142.931 40.256 143.279 39.9767C143.628 39.6819 143.984 39.3095 144.348 38.8595C144.554 38.5958 144.76 38.3242 144.966 38.0449C145.187 37.7501 145.393 37.4553 145.583 37.1605C145.853 36.7261 146.09 36.2994 146.296 35.8804C146.502 35.4615 146.644 35.0968 146.724 34.7865L147.294 32.5522C146.898 32.4125 146.541 32.3117 146.225 32.2496C145.924 32.1875 145.631 32.1565 145.346 32.1565V32.1332Z" fill="#F6F6F6"/>
<path d="M127.387 34.1813L127.078 33.5529L129.073 32.1099C129.77 31.6288 130.301 31.3263 130.665 31.2021C131.029 31.0625 131.29 30.9927 131.449 30.9927C131.734 30.9927 131.916 31.0703 131.995 31.2254C132.09 31.3651 132.138 31.5202 132.138 31.6909C132.138 31.6909 132.138 31.6987 132.138 31.7142C132.138 32.0711 132.082 32.49 131.971 32.971C131.86 33.452 131.647 34.2433 131.33 35.345L130.974 36.5785H131.021C131.306 36.051 131.623 35.5545 131.971 35.089C132.336 34.608 132.708 34.1735 133.088 33.7856C133.563 33.2891 134.022 32.8701 134.466 32.5288C134.909 32.1874 135.273 31.9314 135.558 31.7607C136.065 31.4504 136.477 31.2487 136.794 31.1556C137.126 31.047 137.395 30.9927 137.601 30.9927C137.617 30.9927 137.633 30.9927 137.649 30.9927C137.68 30.9927 137.704 30.9927 137.72 30.9927C137.926 31.0237 138.116 31.1168 138.29 31.272C138.464 31.4116 138.551 31.6599 138.551 32.0168C138.551 32.1254 138.536 32.2805 138.504 32.4822C138.472 32.6684 138.433 32.8624 138.385 33.0641C138.369 33.1107 138.353 33.165 138.338 33.227C138.338 33.2736 138.33 33.3201 138.314 33.3667C138.282 33.4598 138.251 33.5529 138.219 33.646C138.203 33.7391 138.187 33.8244 138.171 33.902L137.031 38.1612C136.936 38.5336 136.857 38.875 136.794 39.1853C136.746 39.4956 136.722 39.7827 136.722 40.0464C136.722 40.1395 136.738 40.2249 136.77 40.3025C136.817 40.3645 136.881 40.3956 136.96 40.3956C137.055 40.3956 137.174 40.3723 137.316 40.3257C137.475 40.2637 137.72 40.1163 138.053 39.8835L138.741 39.3948L139.05 40.0232C138.876 40.1473 138.702 40.2792 138.528 40.4188C138.353 40.543 138.171 40.6749 137.981 40.8145C137.76 40.9697 137.53 41.1326 137.292 41.3033C137.055 41.4584 136.817 41.5981 136.58 41.7222C136.279 41.8774 135.97 42.0093 135.653 42.1179C135.352 42.2265 135.059 42.2808 134.774 42.2808C134.521 42.2808 134.315 42.1877 134.157 42.0015C133.998 41.8308 133.919 41.5981 133.919 41.3033C133.919 41.024 133.975 40.6361 134.086 40.1395C134.196 39.6275 134.323 39.1 134.466 38.5569C134.481 38.4793 134.497 38.4017 134.513 38.3241C134.545 38.231 134.576 38.1379 134.608 38.0448C134.656 37.8431 134.711 37.6414 134.774 37.4397C134.838 37.2225 134.893 37.0208 134.941 36.8346C134.972 36.726 135.02 36.563 135.083 36.3458C135.147 36.1286 135.21 35.8958 135.273 35.6476C135.289 35.5855 135.305 35.5234 135.321 35.4614C135.337 35.3993 135.352 35.3372 135.368 35.2752C135.447 34.9804 135.511 34.7011 135.558 34.4373C135.622 34.1735 135.653 33.9641 135.653 33.8089C135.653 33.6382 135.614 33.5141 135.535 33.4365C135.455 33.3434 135.329 33.2968 135.154 33.2968C134.949 33.2968 134.695 33.3899 134.394 33.5761C134.093 33.7468 133.634 34.1735 133.017 34.8562C132.763 35.151 132.518 35.4691 132.28 35.8105C132.043 36.1519 131.829 36.501 131.639 36.8578C131.417 37.2768 131.219 37.688 131.045 38.0914C130.887 38.4948 130.768 38.8517 130.689 39.162C130.546 39.7361 130.419 40.2559 130.309 40.7214C130.213 41.1714 130.15 41.536 130.118 41.8153C129.976 41.8153 129.794 41.8308 129.572 41.8619C129.366 41.8774 129.152 41.8929 128.931 41.9084C128.757 41.9394 128.59 41.9705 128.432 42.0015C128.274 42.0325 128.123 42.0636 127.981 42.0946C127.901 42.1101 127.83 42.1256 127.767 42.1412C127.703 42.1567 127.648 42.1722 127.6 42.1877L127.363 41.9317C127.426 41.7765 127.482 41.6136 127.529 41.4429C127.593 41.2567 127.656 41.0628 127.719 40.8611C127.783 40.7059 127.838 40.543 127.886 40.3723C127.933 40.2016 127.981 40.0309 128.028 39.8603C128.171 39.3792 128.305 38.9138 128.432 38.4638C128.559 37.9983 128.662 37.5949 128.741 37.2535C128.772 37.1139 128.804 36.9587 128.836 36.788C128.883 36.6018 128.931 36.4079 128.978 36.2062C128.994 36.1286 129.01 36.051 129.026 35.9734C129.042 35.8803 129.057 35.7872 129.073 35.6941C129.168 35.3062 129.24 34.9338 129.287 34.5769C129.35 34.2201 129.382 33.9408 129.382 33.7391C129.382 33.5839 129.358 33.4753 129.311 33.4132C129.279 33.3356 129.224 33.2968 129.145 33.2968C129.034 33.2968 128.907 33.3201 128.764 33.3667C128.622 33.4132 128.416 33.5218 128.147 33.6925L127.387 34.1813Z" fill="#F6F6F6"/>
<path d="M125.92 33.3899L124.637 37.9517C124.621 38.0138 124.605 38.0759 124.589 38.1379C124.573 38.1845 124.558 38.2388 124.542 38.3008C124.447 38.6888 124.36 39.0534 124.28 39.3947C124.201 39.7206 124.162 39.9533 124.162 40.093C124.162 40.1861 124.185 40.2637 124.233 40.3257C124.296 40.3723 124.368 40.3955 124.447 40.3955C124.558 40.3955 124.716 40.349 124.922 40.2559C125.144 40.1473 125.373 40.0232 125.611 39.8835C125.658 39.8525 125.706 39.8214 125.753 39.7904C125.801 39.7594 125.848 39.7283 125.896 39.6973L126.537 39.2784L126.822 39.9301C126.632 40.0697 126.434 40.2093 126.228 40.349C126.038 40.4886 125.84 40.6283 125.635 40.7679C125.365 40.9541 125.088 41.1403 124.803 41.3265C124.534 41.4972 124.257 41.6524 123.972 41.792C123.671 41.9317 123.362 42.048 123.045 42.1411C122.744 42.2342 122.451 42.2808 122.166 42.2808C122.135 42.2808 122.095 42.273 122.048 42.2575C122.016 42.2575 121.976 42.2497 121.929 42.2342C121.818 42.1722 121.707 42.0713 121.596 41.9317C121.501 41.792 121.454 41.5825 121.454 41.3033C121.454 41.2257 121.454 41.1558 121.454 41.0938C121.47 41.0162 121.477 40.9386 121.477 40.861C121.493 40.7059 121.509 40.5662 121.525 40.4421C121.557 40.3024 121.58 40.1861 121.596 40.093L122.998 34.4606C123.029 34.3519 123.061 34.2278 123.093 34.0882C123.14 33.933 123.172 33.7778 123.188 33.6227C123.188 33.5296 123.172 33.452 123.14 33.3899C123.124 33.3279 123.053 33.2968 122.926 33.2968C122.863 33.2968 122.752 33.3279 122.594 33.3899C122.451 33.452 122.293 33.5296 122.119 33.6227C122.087 33.6382 122.055 33.6537 122.024 33.6692C121.992 33.6847 121.96 33.7003 121.929 33.7158C121.802 33.7934 121.675 33.8709 121.549 33.9485C121.438 34.0106 121.359 34.0571 121.311 34.0882L120.789 34.4373L120.48 33.8321L121.976 32.7382C123.006 32.0245 123.79 31.559 124.328 31.3418C124.882 31.109 125.286 30.9927 125.54 30.9927C125.698 30.9927 125.832 31.0702 125.943 31.2254C126.07 31.365 126.133 31.5745 126.133 31.8538C126.133 31.9624 126.125 32.071 126.11 32.1797C126.11 32.2883 126.102 32.3969 126.086 32.5055C126.07 32.6607 126.046 32.8158 126.015 32.971C125.999 33.1106 125.967 33.258 125.92 33.4132V33.3899ZM125.967 25.7094C126.331 25.7249 126.64 25.8645 126.894 26.1283C127.147 26.3766 127.274 26.6791 127.274 27.036C127.274 27.517 127.131 27.9282 126.846 28.2695C126.561 28.6109 126.165 28.7816 125.658 28.7816C125.247 28.7816 124.922 28.6652 124.684 28.4325C124.463 28.1842 124.352 27.8584 124.352 27.4549C124.352 27.005 124.494 26.6093 124.779 26.2679C125.08 25.9111 125.476 25.7326 125.967 25.7326V25.7094Z" fill="#F6F6F6"/>
<path d="M114.862 38.4872L117.213 28.0136C117.245 27.905 117.269 27.7964 117.284 27.6878C117.3 27.5792 117.308 27.4783 117.308 27.3852C117.308 27.168 117.245 27.0051 117.118 26.8965C117.007 26.7878 116.794 26.7335 116.477 26.7335L115.408 26.7103L115.574 26.0586C115.78 26.0431 115.994 26.0198 116.216 25.9888C116.437 25.9577 116.651 25.9267 116.857 25.8957C117.459 25.787 118.045 25.6707 118.615 25.5465C119.201 25.4069 119.755 25.2285 120.278 25.0112L120.515 25.1974C120.483 25.3371 120.452 25.469 120.42 25.5931C120.388 25.7172 120.357 25.8414 120.325 25.9655C120.278 26.0896 120.238 26.2137 120.206 26.3379C120.175 26.462 120.143 26.5939 120.111 26.7335L117.57 37.9286C117.554 38.0061 117.538 38.0837 117.522 38.1613C117.506 38.2234 117.49 38.2854 117.475 38.3475C117.427 38.6113 117.38 38.8906 117.332 39.1854C117.3 39.4802 117.284 39.7828 117.284 40.0931C117.284 40.1862 117.308 40.2638 117.356 40.3258C117.419 40.3724 117.49 40.3957 117.57 40.3957C117.649 40.3957 117.752 40.3724 117.878 40.3258C118.005 40.2793 118.132 40.2172 118.258 40.1396C118.306 40.1086 118.353 40.0776 118.401 40.0465C118.464 40.0155 118.52 39.9845 118.567 39.9534C118.615 39.9224 118.662 39.8991 118.71 39.8836C118.757 39.8526 118.797 39.8216 118.829 39.7905L119.541 39.2319L119.874 39.8603C118.955 40.5275 118.116 41.1017 117.356 41.5827C116.611 42.0481 115.891 42.2809 115.194 42.2809C115.162 42.2809 115.123 42.2731 115.075 42.2576C115.044 42.2576 115.004 42.2499 114.957 42.2343C114.846 42.1723 114.735 42.0714 114.624 41.9318C114.529 41.7921 114.481 41.5827 114.481 41.3034C114.481 40.7137 114.513 40.2172 114.576 39.8138C114.656 39.3949 114.743 38.9992 114.838 38.6268C114.838 38.6113 114.838 38.5958 114.838 38.5803C114.854 38.5492 114.862 38.5259 114.862 38.5104V38.4872Z" fill="#F6F6F6"/>
<path d="M112.123 33.3899L110.841 37.9517C110.825 38.0138 110.809 38.0759 110.793 38.1379C110.777 38.1845 110.761 38.2388 110.746 38.3008C110.651 38.6888 110.564 39.0534 110.484 39.3947C110.405 39.7206 110.366 39.9533 110.366 40.093C110.366 40.1861 110.389 40.2637 110.437 40.3257C110.5 40.3723 110.571 40.3955 110.651 40.3955C110.761 40.3955 110.92 40.349 111.126 40.2559C111.347 40.1473 111.577 40.0232 111.815 39.8835C111.862 39.8525 111.91 39.8214 111.957 39.7904C112.005 39.7594 112.052 39.7283 112.1 39.6973L112.741 39.2784L113.026 39.9301C112.836 40.0697 112.638 40.2093 112.432 40.349C112.242 40.4886 112.044 40.6283 111.838 40.7679C111.569 40.9541 111.292 41.1403 111.007 41.3265C110.738 41.4972 110.461 41.6524 110.176 41.792C109.875 41.9317 109.566 42.048 109.249 42.1411C108.948 42.2342 108.655 42.2808 108.37 42.2808C108.339 42.2808 108.299 42.273 108.251 42.2575C108.22 42.2575 108.18 42.2497 108.133 42.2342C108.022 42.1722 107.911 42.0713 107.8 41.9317C107.705 41.792 107.658 41.5825 107.658 41.3033C107.658 41.2257 107.658 41.1558 107.658 41.0938C107.673 41.0162 107.681 40.9386 107.681 40.861C107.697 40.7059 107.713 40.5662 107.729 40.4421C107.76 40.3024 107.784 40.1861 107.8 40.093L109.202 34.4606C109.233 34.3519 109.265 34.2278 109.297 34.0882C109.344 33.933 109.376 33.7778 109.392 33.6227C109.392 33.5296 109.376 33.452 109.344 33.3899C109.328 33.3279 109.257 33.2968 109.13 33.2968C109.067 33.2968 108.956 33.3279 108.798 33.3899C108.655 33.452 108.497 33.5296 108.323 33.6227C108.291 33.6382 108.259 33.6537 108.228 33.6692C108.196 33.6847 108.164 33.7003 108.133 33.7158C108.006 33.7934 107.879 33.8709 107.753 33.9485C107.642 34.0106 107.563 34.0571 107.515 34.0882L106.992 34.4373L106.684 33.8321L108.18 32.7382C109.21 32.0245 109.993 31.559 110.532 31.3418C111.086 31.109 111.49 30.9927 111.743 30.9927C111.902 30.9927 112.036 31.0702 112.147 31.2254C112.274 31.365 112.337 31.5745 112.337 31.8538C112.337 31.9624 112.329 32.071 112.313 32.1797C112.313 32.2883 112.306 32.3969 112.29 32.5055C112.274 32.6607 112.25 32.8158 112.218 32.971C112.203 33.1106 112.171 33.258 112.123 33.4132V33.3899ZM112.171 25.7094C112.535 25.7249 112.844 25.8645 113.097 26.1283C113.351 26.3766 113.477 26.6791 113.477 27.036C113.477 27.517 113.335 27.9282 113.05 28.2695C112.765 28.6109 112.369 28.7816 111.862 28.7816C111.45 28.7816 111.126 28.6652 110.888 28.4325C110.666 28.1842 110.556 27.8584 110.556 27.4549C110.556 27.005 110.698 26.6093 110.983 26.2679C111.284 25.9111 111.68 25.7326 112.171 25.7326V25.7094Z" fill="#F6F6F6"/>
<path d="M100.804 26.7103L99.141 34.6469L99.1885 34.6934C99.2519 34.6003 99.3231 34.4995 99.4023 34.3908C99.4815 34.2822 99.5607 34.1736 99.6398 34.065C100.21 33.3047 100.946 32.6065 101.849 31.9703C102.752 31.3186 103.757 30.9928 104.866 30.9928C105.388 30.9928 105.776 31.1867 106.03 31.5746C106.299 31.947 106.465 32.366 106.529 32.8315C106.545 32.9401 106.552 33.0487 106.552 33.1573C106.568 33.2504 106.576 33.3513 106.576 33.4599C106.576 34.9649 106.323 36.3459 105.816 37.6027C105.325 38.844 104.446 39.9069 103.179 40.7913C102.815 41.0396 102.395 41.2801 101.92 41.5128C101.445 41.7301 100.954 41.9007 100.447 42.0249C100.178 42.1025 99.9011 42.1645 99.6161 42.2111C99.3469 42.2576 99.0856 42.2809 98.8322 42.2809C98.072 42.2809 97.3911 42.0947 96.7893 41.7223C96.1875 41.3499 95.8866 40.6982 95.8866 39.7673C95.8866 39.6121 95.8945 39.4647 95.9104 39.325C95.9262 39.1854 95.942 39.0457 95.9579 38.9061C95.9737 38.8285 95.9895 38.7432 96.0054 38.6501C96.0212 38.557 96.037 38.4639 96.0529 38.3708C96.0529 38.3242 96.0608 38.2777 96.0766 38.2311C96.0925 38.1691 96.1004 38.1148 96.1004 38.0682L97.8345 28.0136C97.8662 27.905 97.882 27.7964 97.882 27.6878C97.8978 27.5637 97.9057 27.4628 97.9057 27.3852C97.9057 27.168 97.8503 27.0051 97.7395 26.8965C97.6286 26.7878 97.4148 26.7335 97.0981 26.7335L96.0291 26.7103L96.1954 26.0586C96.4013 26.0431 96.6151 26.0198 96.8368 25.9888C97.0585 25.9577 97.2723 25.9267 97.4782 25.8957C98.08 25.787 98.6659 25.6707 99.236 25.5465C99.822 25.4069 100.376 25.2285 100.899 25.0112L101.136 25.1974C101.105 25.3371 101.073 25.469 101.041 25.5931C101.026 25.7172 101.002 25.8414 100.97 25.9655C100.938 26.0896 100.907 26.2215 100.875 26.3611C100.859 26.4853 100.835 26.6094 100.804 26.7335V26.7103ZM102.966 32.5056C102.855 32.5211 102.744 32.5444 102.633 32.5754C102.538 32.591 102.435 32.622 102.324 32.6685C102.087 32.7461 101.849 32.8625 101.611 33.0177C101.39 33.1728 101.184 33.328 100.994 33.4831C100.931 33.5452 100.867 33.6073 100.804 33.6693C100.756 33.7159 100.709 33.7624 100.661 33.809C100.471 34.0107 100.305 34.1969 100.162 34.3676C100.02 34.5227 99.8932 34.6779 99.7824 34.8331C99.6874 34.9882 99.6003 35.1434 99.5211 35.2985C99.4419 35.4537 99.3627 35.6244 99.2835 35.8106C99.236 35.9192 99.1885 36.0356 99.141 36.1597C99.0935 36.2838 99.046 36.4157 98.9985 36.5554C98.8401 36.9898 98.7134 37.4243 98.6184 37.8587C98.5392 38.2932 98.4996 38.7354 98.4996 39.1854C98.4996 39.7129 98.6263 40.1862 98.8797 40.6051C99.1331 41.0241 99.5765 41.2335 100.21 41.2335C100.669 41.2335 101.081 41.0706 101.445 40.7448C101.825 40.4034 102.142 40.031 102.395 39.6276C102.49 39.488 102.57 39.3561 102.633 39.2319C102.712 39.0923 102.775 38.9604 102.823 38.8363C102.997 38.4484 103.156 38.0294 103.298 37.5794C103.441 37.1295 103.559 36.6717 103.654 36.2063C103.718 35.8649 103.765 35.5313 103.797 35.2055C103.844 34.8796 103.868 34.5615 103.868 34.2512C103.868 34.1736 103.86 34.065 103.844 33.9254C103.829 33.7702 103.797 33.615 103.749 33.4599C103.686 33.2271 103.591 33.0177 103.464 32.8315C103.338 32.6297 103.171 32.5289 102.966 32.5289V32.5056Z" fill="#F6F6F6"/>
<path d="M87.5244 42.2808C86.1941 42.2808 85.2518 41.9705 84.6976 41.3498C84.1591 40.7292 83.8899 39.7982 83.8899 38.5569C83.8899 38.3552 83.9057 38.1302 83.9374 37.8819C83.9691 37.6337 84.0087 37.3776 84.0562 37.1139C84.1195 36.8501 84.1829 36.5863 84.2462 36.3225C84.3096 36.0588 84.3808 35.8183 84.46 35.601C84.4917 35.5234 84.5154 35.4536 84.5313 35.3916C84.5629 35.314 84.5867 35.2441 84.6025 35.1821C84.7134 34.9028 84.8242 34.6545 84.9351 34.4373C85.046 34.2046 85.1885 33.9796 85.3627 33.7623C85.4419 33.6848 85.5211 33.5994 85.6002 33.5063C85.6953 33.4132 85.7903 33.3201 85.8853 33.227C86.6138 32.5598 87.4056 32.0245 88.2608 31.6211C89.1318 31.2021 90.0661 30.9927 91.0638 30.9927C92.2991 30.9927 93.2097 31.3185 93.7956 31.9702C94.3816 32.6219 94.6745 33.5451 94.6745 34.7399C94.6745 34.9416 94.6587 35.1666 94.627 35.4148C94.5954 35.6631 94.5558 35.9191 94.5083 36.1829C94.4607 36.4467 94.4053 36.7104 94.342 36.9742C94.2786 37.238 94.2074 37.4785 94.1282 37.6957C94.0965 37.7733 94.0648 37.8509 94.0332 37.9285C94.0173 37.9905 94.0015 38.0526 93.9856 38.1147C93.8748 38.394 93.7639 38.65 93.6531 38.8827C93.5422 39.1 93.3997 39.3172 93.2255 39.5344C93.1463 39.612 93.0592 39.6973 92.9642 39.7904C92.885 39.8835 92.7979 39.9766 92.7029 40.0697C91.9903 40.7369 91.1984 41.2722 90.3274 41.6757C89.4564 42.0791 88.5221 42.2808 87.5244 42.2808ZM90.0661 31.9935C89.1476 32.009 88.435 32.459 87.9282 33.3434C87.4373 34.2123 87.0889 35.1743 86.883 36.2294C86.788 36.757 86.7167 37.2768 86.6692 37.7888C86.6217 38.2853 86.5979 38.7276 86.5979 39.1155C86.5979 39.6741 86.7642 40.1783 87.0968 40.6283C87.4452 41.0628 87.9124 41.28 88.4983 41.28C89.401 41.28 90.0978 40.8455 90.5887 39.9766C91.0955 39.0922 91.4597 38.1302 91.6814 37.0906C91.7765 36.563 91.8477 36.0432 91.8952 35.5312C91.9427 35.0192 91.9665 34.5692 91.9665 34.1813C91.9665 33.6227 91.8002 33.1262 91.4677 32.6917C91.1351 32.2417 90.6679 32.0168 90.0661 32.0168V31.9935Z" fill="#F6F6F6"/>
<path d="M153.506 42.2544C152.176 42.2544 151.234 41.9441 150.679 41.3235C150.141 40.7028 149.872 39.7718 149.872 38.5305C149.872 38.3288 149.887 38.1038 149.919 37.8556C149.951 37.6073 149.99 37.3513 150.038 37.0875C150.101 36.8237 150.165 36.5599 150.228 36.2962C150.291 36.0324 150.363 35.7919 150.442 35.5747C150.473 35.4971 150.497 35.4272 150.513 35.3652C150.545 35.2876 150.568 35.2178 150.584 35.1557C150.695 34.8764 150.806 34.6282 150.917 34.4109C151.028 34.1782 151.17 33.9532 151.344 33.736C151.424 33.6584 151.503 33.5731 151.582 33.48C151.677 33.3869 151.772 33.2938 151.867 33.2007C152.595 32.5335 153.387 31.9981 154.242 31.5947C155.113 31.1758 156.048 30.9663 157.046 30.9663C158.281 30.9663 159.191 31.2922 159.777 31.9438C160.363 32.5955 160.656 33.5187 160.656 34.7135C160.656 34.9152 160.64 35.1402 160.609 35.3885C160.577 35.6367 160.537 35.8927 160.49 36.1565C160.442 36.4203 160.387 36.6841 160.324 36.9478C160.26 37.2116 160.189 37.4521 160.11 37.6694C160.078 37.7469 160.047 37.8245 160.015 37.9021C159.999 37.9642 159.983 38.0262 159.967 38.0883C159.856 38.3676 159.746 38.6236 159.635 38.8564C159.524 39.0736 159.381 39.2908 159.207 39.508C159.128 39.5856 159.041 39.671 158.946 39.7641C158.867 39.8572 158.78 39.9503 158.685 40.0434C157.972 40.7106 157.18 41.2459 156.309 41.6493C155.438 42.0527 154.504 42.2544 153.506 42.2544ZM156.048 31.9671C155.129 31.9826 154.417 32.4326 153.91 33.317C153.419 34.1859 153.071 35.148 152.865 36.2031C152.77 36.7306 152.698 37.2504 152.651 37.7625C152.603 38.259 152.58 38.7012 152.58 39.0891C152.58 39.6477 152.746 40.152 153.078 40.6019C153.427 41.0364 153.894 41.2536 154.48 41.2536C155.383 41.2536 156.079 40.8192 156.57 39.9503C157.077 39.0658 157.441 38.1038 157.663 37.0642C157.758 36.5367 157.829 36.0169 157.877 35.5048C157.924 34.9928 157.948 34.5428 157.948 34.1549C157.948 33.5963 157.782 33.0998 157.449 32.6653C157.117 32.2154 156.65 31.9904 156.048 31.9904V31.9671Z" fill="#F6F6F6"/>
<path d="M26.8938 26.5652C26.9893 26.0404 27.0562 25.6187 27.0943 25.3001C27.1516 24.9815 27.1803 24.7191 27.1803 24.5129C27.1612 24.2505 27.0657 24.0631 26.8938 23.9506C26.7411 23.8194 26.4737 23.7445 26.0918 23.7257L24.631 23.6133L24.7742 22.6293L25.519 22.6855H26.235C26.7124 22.7042 27.1803 22.723 27.6386 22.7417H29.0421H29.8155C30.0828 22.7417 30.3406 22.7324 30.5889 22.7136H31.3622C31.6296 22.7136 31.8874 22.7042 32.1356 22.6855H32.909C33.1763 22.6668 33.4341 22.6574 33.6824 22.6574L33.5391 23.6133L32.2215 23.6976C31.8014 23.7351 31.4959 23.8194 31.3049 23.9506C31.1331 24.0818 30.9994 24.4192 30.9039 24.9627C30.4966 27.1956 30.103 29.4421 29.6749 31.5619C28.354 38.1011 26.9057 43.472 20.9074 43.472C17.0085 43.472 18.4018 38.9328 19.1078 36.9214H20.3075C20.0545 39.4059 19.4078 41.09 20.9074 41.09C24.9254 41.09 25.5751 34.109 26.8938 26.5652Z" fill="#F6F6F6"/>
<path d="M43.5264 42.2987L39.459 26.5268H39.4017L36.3655 38.7845C36.3082 39.0094 36.2509 39.2249 36.1936 39.4311C36.1555 39.6373 36.1364 39.8435 36.1364 40.0496C36.1364 40.2745 36.1936 40.462 36.3082 40.6119C36.4228 40.7431 36.6901 40.8274 37.1102 40.8649L38.5711 40.9212L38.4278 41.9051C38.256 41.9051 38.0841 41.8958 37.9123 41.877C37.7404 41.877 37.5685 41.877 37.3967 41.877C37.053 41.8583 36.7092 41.8395 36.3655 41.8208C36.0218 41.8208 35.6781 41.8208 35.3343 41.8208C35.0861 41.8208 34.8283 41.8208 34.561 41.8208C34.2936 41.8395 34.0358 41.8489 33.7876 41.8489C33.6921 41.8489 33.5966 41.8489 33.5012 41.8489C33.4248 41.8677 33.3388 41.877 33.2434 41.877C33.0715 41.877 32.9092 41.877 32.7564 41.877C32.5846 41.8958 32.4127 41.9051 32.2408 41.9051L32.2695 40.9212L33.4725 40.8368C33.7589 40.8368 33.9881 40.6962 34.16 40.4151C34.3318 40.1152 34.4655 39.7966 34.561 39.4592C34.5801 39.4217 34.5896 39.3936 34.5896 39.3749C34.6087 39.3374 34.6183 39.3093 34.6183 39.2905L38.1987 26.3019C38.3133 25.8895 38.3801 25.5428 38.3992 25.2617C38.4374 24.9805 38.4565 24.7462 38.4565 24.5588C38.4565 24.2589 38.3133 24.0528 38.0268 23.9403C37.7595 23.8278 37.4635 23.7529 37.1389 23.7154C37.1007 23.6966 37.0625 23.6873 37.0243 23.6873C37.0052 23.6873 36.9766 23.6873 36.9384 23.6873L35.6494 23.5748L35.7926 22.6752C35.9645 22.6939 36.1364 22.7127 36.3082 22.7314C36.4992 22.7314 36.6806 22.7314 36.8524 22.7314C37.2153 22.7501 37.5685 22.7689 37.9123 22.7876C38.2751 22.7876 38.6283 22.7876 38.9721 22.7876C39.2394 22.7876 39.4972 22.7876 39.7454 22.7876C40.0128 22.7689 40.2801 22.7595 40.5475 22.7595C40.6429 22.7595 40.7289 22.7595 40.8052 22.7595C40.9007 22.7408 40.9867 22.7314 41.063 22.7314C41.2349 22.7314 41.4068 22.7314 41.5786 22.7314C41.7696 22.7127 41.951 22.7033 42.1228 22.7033L45.7606 36.929L53.3797 24.7837C53.5325 24.5776 53.6662 24.362 53.7807 24.1371C53.9144 23.8934 54.0481 23.6498 54.1818 23.4061C54.2581 23.2937 54.325 23.1812 54.3823 23.0688C54.4586 22.9376 54.5255 22.8157 54.5828 22.7033C54.7737 22.7033 54.9551 22.7127 55.127 22.7314C55.2988 22.7314 55.4803 22.7314 55.6712 22.7314C56.034 22.7501 56.3968 22.7689 56.7597 22.7876C57.1225 22.7876 57.4853 22.7876 57.8481 22.7876C58.1155 22.7876 58.3828 22.7876 58.6501 22.7876C58.9175 22.7689 59.1944 22.7595 59.4808 22.7595C59.5572 22.7595 59.6431 22.7595 59.7386 22.7595C59.8341 22.7408 59.92 22.7314 59.9964 22.7314C60.1873 22.7314 60.3687 22.7314 60.5406 22.7314C60.7316 22.7127 60.913 22.7033 61.0848 22.7033L60.9416 23.5748L59.8245 23.6592C59.328 23.7154 58.9748 23.8653 58.7647 24.109C58.5547 24.3339 58.3733 24.8399 58.2205 25.6271L55.929 38.7283C55.929 38.7845 55.9195 38.8407 55.9004 38.8969C55.9004 38.9344 55.8908 38.9813 55.8717 39.0375C55.8717 39.0375 55.8717 39.0469 55.8717 39.0656C55.8717 39.0844 55.8717 39.0937 55.8717 39.0937C55.8335 39.2812 55.7953 39.4592 55.7571 39.6279C55.7381 39.7779 55.7285 39.9184 55.7285 40.0496C55.7285 40.2745 55.7858 40.462 55.9004 40.6119C56.034 40.7431 56.3205 40.8274 56.7597 40.8649L58.3351 40.9212L58.1918 41.9051C57.9436 41.9051 57.6954 41.8958 57.4471 41.877C57.218 41.877 56.9793 41.877 56.731 41.877C56.6164 41.877 56.4923 41.8677 56.3587 41.8489C56.2441 41.8489 56.1295 41.8489 56.0149 41.8489C55.6521 41.8489 55.2893 41.8395 54.9265 41.8208C54.5637 41.8208 54.2008 41.8208 53.838 41.8208C53.3606 41.8208 52.8737 41.8208 52.3772 41.8208C51.8807 41.8395 51.3842 41.8583 50.8878 41.877C50.6395 41.877 50.3913 41.877 50.143 41.877C49.8948 41.8958 49.6465 41.9051 49.3983 41.9051L49.5415 40.9212L50.945 40.8368C50.9832 40.8556 51.0214 40.8649 51.0596 40.8649C51.1169 40.8462 51.1646 40.8368 51.2028 40.8368C51.3747 40.7993 51.5275 40.7431 51.6611 40.6681C51.8139 40.5744 51.9094 40.462 51.9476 40.3308C52.0048 40.1059 52.0621 39.8809 52.1194 39.656C52.1767 39.4311 52.2244 39.2156 52.2626 39.0094L54.5828 25.5428L54.5255 25.4866L46.2762 38.7845C46.0661 39.1406 45.856 39.4967 45.646 39.8528C45.455 40.2089 45.2545 40.565 45.0445 40.9212C44.9108 41.1461 44.7771 41.371 44.6435 41.5959C44.5098 41.8208 44.3761 42.0551 44.2425 42.2987H43.5264Z" fill="#F6F6F6"/>
<path d="M8.36238 22.6979C8.36535 22.843 8.11399 22.8351 8.08403 22.693C7.13312 18.1843 8.80334 16.215 12.8023 16.726C13.4752 16.8119 13.4395 17.9194 12.8422 17.9194C10.1046 17.9194 8.28817 19.0767 8.36238 22.6979Z" fill="#F6F6F6"/>
<path d="M10.694 27.6784C9.89575 27.6923 9.99763 28.5366 10.6782 28.5737C10.6885 28.5742 10.6993 28.5754 10.7095 28.5774C14.0104 29.2146 15.6781 29.4325 17.723 31.7657C17.9124 31.9818 18.2736 31.8491 18.2454 31.5637C17.9012 28.0762 16.0011 27.2153 10.694 27.6784Z" fill="#F6F6F6"/>
<path d="M5.10185 35.8391C5.91284 33.6337 11.418 33.1356 22.208 33.4499C18.8318 34.856 13.7759 35.4455 5.10185 35.8391Z" fill="#F6F6F6"/>
<path d="M5.70294 45.9932C8.4777 47.3859 10.6322 47.8804 16.5069 47.7851C10.9346 49.0919 8.14131 49.249 4.50257 47.1878C3.90236 46.5905 4.80269 45.5414 5.70294 45.9932Z" fill="#F6F6F6"/>
<path d="M4.2929 37.7744C4.3145 37.9878 4.61404 37.9762 4.63456 37.7627C5.91004 24.4893 12.5393 17.8343 61.5232 16.7245C42.5794 16.3384 28.0487 16.5094 18.3505 19.1136C21.0085 11.05 33.0128 2.9865 50.7192 0C30.9121 1.49442 18.3505 10.1553 15.0063 20.183C14.7332 20.2866 14.4652 20.3929 14.2022 20.5021C14.1495 20.5402 14.082 20.5679 14.0028 20.5858C13.4081 20.7205 12.1504 20.3098 11.494 19.6943C11.3955 19.602 11.0771 19.6852 11.0886 19.8193C11.1311 20.3172 11.3723 20.7471 12.3053 21.3842C8.30289 23.4699 5.74397 26.3973 4.69496 30.4634C-1.7505 35.9611 -2.05664 52.6084 6.90337 53.1608C10.5048 53.1608 9.90454 51.6676 6.90337 51.3689C0.877083 50.0675 -0.299154 40.6175 4.30137 32.554C4.10439 34.1388 4.10057 35.8745 4.2929 37.7744Z" fill="#F6F6F6"/>
</svg>
